<svg ed:vSpacing="30" id="page300000100" xmlns:ev="http://www.w3.org/2001/xml-events" ed:name="页面-1" ed:hSpacing="30" xmlns:xlink="http://www.w3.org/1999/xlink" height="513" xmlns="http://www.w3.org/2000/svg" width="536" viewBox="0 0 536 513" xmlns:ed="https://www.edrawsoft.cn/xml/2017/SVGExtensions/"><style type="text/css"><![CDATA[
g[ed\:togtopicid],g[ed\:hyperlink],g[ed\:comment],g[ed\:note] {cursor:pointer;}
g[id] {-moz-user-select: none;-ms-user-select: none;user-select: none;}
svg text::selection,svg tspan::selection{background-color: #4285f4;color: #ffffff;fill: #ffffff;}
.st13 {fill:#454545;font-family:微软雅黑;font-size:14pt;font-weight:bold}
.st12 {fill:#ffffff;font-family:微软雅黑;font-size:18pt;font-weight:bold}
]]></style><defs/><rect fill="#ffffff" x="0" y="0" height="513" width="536"/><path ed:parentid="148" fill="#4087f3" transform="matrix(1,0,0,1,272.5,166.38)" id="108" stroke-linecap="round" stroke="#4087f3" stroke-linejoin="round" d="M-74.3,75.6C-75.2,78.7,-73.6,81.3,-71.2,81.9C-68.8,82.5,-66.3,80.8,-65.6,77.7C-65.1,75.4,-64.6,73.2,-64,70.9C-63.5,68.7,-62.9,66.5,-62.3,64.2C-61.7,62,-61.1,59.8,-60.5,57.5C-59.9,55.3,-59.2,53.1,-58.6,50.9C-57.9,48.7,-57.2,46.5,-56.5,44.3C-55.8,42.1,-55.1,39.9,-54.3,37.7C-53.6,35.5,-52.8,33.3,-52,31.2C-51.2,29,-50.4,26.8,-49.6,24.7C-48.8,22.5,-47.9,20.4,-47.1,18.2C-46.2,16.1,-45.3,14,-44.4,11.8C-43.5,9.7,-42.5,7.6,-41.6,5.5C-40.6,3.4,-39.6,1.3,-38.6,-0.7C-37.6,-2.8,-36.6,-4.9,-35.5,-6.9C-34.5,-9,-33.4,-11,-32.3,-13.1C-31.2,-15.1,-30,-17.1,-28.9,-19.1C-27.7,-21.1,-26.5,-23.1,-25.3,-25C-24.1,-27,-22.9,-29,-21.6,-30.9C-20.4,-32.8,-19.1,-34.7,-17.8,-36.6C-16.4,-38.5,-15.1,-40.4,-13.7,-42.2C-12.3,-44.1,-10.9,-45.9,-9.5,-47.7C-8.1,-49.5,-6.6,-51.3,-5.1,-53.1C-3.6,-54.8,-2.1,-56.5,-0.5,-58.2C1.1,-59.9,2.6,-61.6,4.3,-63.3C5.9,-64.9,7.5,-66.5,9.2,-68.1C10.9,-69.6,12.6,-71.2,14.4,-72.7C16.1,-74.2,17.9,-75.6,19.7,-77.1C21.5,-78.5,23.4,-79.9,25.3,-81.2C27.1,-82.6,29,-83.9,31,-85.1C32.9,-86.4,34.9,-87.6,36.9,-88.7C38.9,-89.9,40.9,-91,43,-92C45,-93.1,47.1,-94.1,49.2,-95.1C51.3,-96,53.4,-96.9,55.6,-97.7C57.8,-98.6,59.9,-99.4,62.1,-100.1C64.3,-100.8,66.5,-101.5,68.8,-102.1C71,-102.7,73.3,-103.3,75.5,-103.8C77.8,-104.3,80,-104.7,82.3,-105.1C84.6,-105.5,87,-105.8,89.2,-106.1C91.5,-106.4,93.6,-106.6,96.2,-106.8C98.7,-106.9,101.7,-107,103.1,-107.1C104.6,-107.1,104.5,-107.1,104.5,-107.1C104.2,-107,105.1,-107.3,105.1,-107.6C105.1,-107.9,104.1,-108,104.5,-108.1C104.5,-108.1,104.6,-108.1,103.1,-108.1C101.7,-108.1,98.7,-108.1,96.1,-108C93.5,-107.9,91.4,-107.8,89.1,-107.6C86.8,-107.4,84.4,-107.1,82.1,-106.8C79.7,-106.4,77.4,-106.1,75.1,-105.6C72.8,-105.2,70.5,-104.7,68.3,-104.1C66,-103.6,63.7,-102.9,61.4,-102.3C59.2,-101.6,57,-100.9,54.7,-100.1C52.5,-99.3,50.3,-98.4,48.1,-97.5C46,-96.6,43.8,-95.6,41.7,-94.6C39.6,-93.6,37.5,-92.5,35.4,-91.4C33.3,-90.3,31.3,-89.1,29.2,-87.9C27.2,-86.7,25.2,-85.4,23.3,-84.1C21.3,-82.8,19.4,-81.4,17.5,-80C15.6,-78.6,13.7,-77.2,11.9,-75.7C10,-74.2,8.2,-72.7,6.5,-71.1C4.7,-69.6,3,-68,1.2,-66.3C-0.5,-64.7,-2.1,-63,-3.8,-61.3C-5.4,-59.6,-7,-57.9,-8.6,-56.2C-10.2,-54.4,-11.8,-52.6,-13.3,-50.8C-14.8,-49,-16.3,-47.2,-17.8,-45.4C-19.2,-43.5,-20.7,-41.6,-22.1,-39.7C-23.5,-37.8,-24.9,-35.9,-26.2,-34C-27.6,-32,-28.9,-30.1,-30.2,-28.1C-31.5,-26.1,-32.7,-24.2,-34,-22.2C-35.2,-20.1,-36.4,-18.1,-37.6,-16.1C-38.8,-14,-40,-12,-41.1,-9.9C-42.3,-7.9,-43.4,-5.8,-44.5,-3.7C-45.6,-1.6,-46.6,0.5,-47.7,2.6C-48.7,4.7,-49.7,6.9,-50.7,9C-51.7,11.1,-52.7,13.3,-53.7,15.4C-54.6,17.6,-55.5,19.8,-56.4,21.9C-57.4,24.1,-58.2,26.3,-59.1,28.5C-60,30.7,-60.8,32.9,-61.7,35.1C-62.5,37.3,-63.3,39.5,-64.1,41.7C-64.9,44,-65.6,46.2,-66.4,48.4C-67.1,50.7,-67.8,52.9,-68.5,55.2C-69.2,57.4,-69.9,59.7,-70.6,61.9C-71.3,64.2,-71.9,66.5,-72.5,68.7C-73.2,71,-73.8,73.3,-74.3,75.6z" ed:tosuperid="149"/><path ed:parentid="148" fill="#fbbf04" transform="matrix(1,0,0,1,272.5,202.25)" id="111" stroke-linecap="round" stroke="#fbbf04" stroke-linejoin="round" d="M-56.7,39.1C-58,42.1,-56.8,44.9,-54.5,45.8C-52.2,46.7,-49.5,45.4,-48.3,42.4C-47.5,40.3,-46.7,38.1,-45.9,36C-45,33.9,-44.1,31.8,-43.2,29.7C-42.2,27.6,-41.3,25.5,-40.3,23.5C-39.3,21.4,-38.2,19.4,-37.1,17.4C-36.1,15.3,-35,13.3,-33.8,11.3C-32.7,9.4,-31.5,7.4,-30.3,5.5C-29.1,3.5,-27.8,1.6,-26.6,-0.3C-25.3,-2.2,-24,-4.1,-22.6,-5.9C-21.3,-7.8,-19.9,-9.6,-18.4,-11.4C-17,-13.2,-15.6,-15,-14.1,-16.7C-12.6,-18.4,-11.1,-20.2,-9.5,-21.8C-7.9,-23.5,-6.3,-25.2,-4.7,-26.8C-3.1,-28.4,-1.4,-29.9,0.3,-31.5C2,-33,3.7,-34.5,5.5,-36C7.3,-37.5,9.1,-38.9,10.9,-40.3C12.7,-41.7,14.6,-43,16.5,-44.3C18.4,-45.6,20.3,-46.9,22.3,-48.1C24.2,-49.3,26.2,-50.5,28.2,-51.6C30.2,-52.7,32.3,-53.8,34.3,-54.8C36.4,-55.8,38.5,-56.8,40.6,-57.7C42.7,-58.7,44.8,-59.6,47,-60.4C49.1,-61.2,51.3,-62,53.5,-62.7C55.7,-63.5,57.9,-64.2,60.1,-64.8C62.3,-65.4,64.6,-66,66.8,-66.6C69.1,-67.1,71.4,-67.6,73.6,-68C75.9,-68.5,78.2,-68.9,80.5,-69.2C82.8,-69.6,85.1,-69.9,87.4,-70.1C89.7,-70.4,91.9,-70.6,94.3,-70.8C96.8,-71,99.6,-71.1,101.3,-71.2C103,-71.2,103.8,-71.2,104.5,-71.3C104.9,-71.3,105.1,-71.5,105.1,-71.8C105.1,-72,104.9,-72.2,104.5,-72.3C103.8,-72.3,103,-72.3,101.3,-72.3C99.5,-72.3,96.8,-72.3,94.3,-72.2C91.8,-72.1,89.5,-72,87.2,-71.8C84.9,-71.6,82.6,-71.4,80.2,-71.2C77.9,-70.9,75.6,-70.6,73.2,-70.2C70.9,-69.9,68.6,-69.4,66.3,-69C64,-68.5,61.7,-68,59.4,-67.5C57.1,-66.9,54.8,-66.3,52.6,-65.6C50.3,-65,48.1,-64.2,45.8,-63.5C43.6,-62.7,41.4,-61.9,39.2,-61C37,-60.2,34.8,-59.2,32.7,-58.3C30.5,-57.3,28.4,-56.3,26.3,-55.2C24.2,-54.1,22.1,-53,20,-51.8C18,-50.7,15.9,-49.5,13.9,-48.2C11.9,-46.9,10,-45.6,8,-44.3C6.1,-42.9,4.1,-41.5,2.3,-40.1C0.4,-38.6,-1.5,-37.1,-3.3,-35.6C-5.1,-34.1,-6.9,-32.5,-8.7,-30.9C-10.4,-29.3,-12.1,-27.7,-13.8,-26C-15.5,-24.3,-17.1,-22.6,-18.8,-20.9C-20.4,-19.1,-22,-17.4,-23.5,-15.6C-25.1,-13.8,-26.6,-11.9,-28,-10.1C-29.5,-8.2,-31,-6.3,-32.4,-4.4C-33.8,-2.5,-35.1,-0.5,-36.5,1.4C-37.8,3.4,-39.1,5.4,-40.4,7.4C-41.6,9.4,-42.9,11.5,-44.1,13.5C-45.3,15.6,-46.4,17.7,-47.5,19.7C-48.7,21.8,-49.8,24,-50.8,26.1C-51.9,28.2,-52.9,30.4,-53.9,32.5C-54.8,34.7,-55.8,36.9,-56.7,39.1z" ed:tosuperid="152"/><path ed:parentid="148" fill="#34ab52" transform="matrix(1,0,0,1,272.5,238.13)" id="112" stroke-linecap="round" stroke="#34ab52" stroke-linejoin="round" d="M-4.4,1.9C-6.7,4.2,-6.5,7.3,-4.7,8.9C-2.8,10.6,0.2,10.3,2.3,7.9C3.8,6.2,5.2,4.5,6.8,2.9C8.3,1.2,9.9,-0.3,11.5,-1.9C13.2,-3.4,14.9,-4.9,16.7,-6.3C18.4,-7.7,20.2,-9.1,22,-10.4C23.9,-11.7,25.8,-13,27.7,-14.2C29.6,-15.4,31.6,-16.5,33.6,-17.6C35.6,-18.7,37.6,-19.8,39.7,-20.8C41.7,-21.7,43.8,-22.7,45.9,-23.6C48,-24.4,50.2,-25.3,52.3,-26C54.5,-26.8,56.7,-27.5,58.9,-28.2C61.1,-28.9,63.3,-29.5,65.6,-30.1C67.8,-30.6,70,-31.1,72.3,-31.6C74.6,-32.1,76.8,-32.5,79.1,-32.9C81.4,-33.3,83.7,-33.6,86,-33.9C88.3,-34.2,90.5,-34.4,92.9,-34.7C95.3,-34.9,97.9,-35.1,99.9,-35.2C101.9,-35.3,103.2,-35.3,104.5,-35.4C104.9,-35.4,105.1,-35.6,105.1,-35.9C105.1,-36.1,104.9,-36.4,104.5,-36.4C103.2,-36.4,101.8,-36.5,99.9,-36.5C97.9,-36.5,95.3,-36.5,92.8,-36.5C90.4,-36.4,88.1,-36.3,85.8,-36.2C83.5,-36,81.1,-35.9,78.8,-35.6C76.4,-35.4,74.1,-35.1,71.8,-34.8C69.4,-34.5,67.1,-34.1,64.8,-33.7C62.4,-33.3,60.1,-32.8,57.8,-32.3C55.5,-31.7,53.2,-31.1,50.9,-30.5C48.6,-29.8,46.4,-29.1,44.1,-28.4C41.9,-27.6,39.6,-26.8,37.4,-25.9C35.2,-25,33,-24.1,30.8,-23.1C28.7,-22.1,26.5,-21,24.4,-19.9C22.3,-18.8,20.2,-17.6,18.1,-16.3C16.1,-15,14.1,-13.7,12.1,-12.3C10.1,-10.9,8.2,-9.5,6.3,-8C4.4,-6.5,2.6,-4.9,0.8,-3.2C-1,-1.6,-2.7,0.2,-4.4,1.9z" ed:tosuperid="153"/><path ed:parentid="148" fill="#6f56e6" transform="matrix(1,0,0,1,272.5,345.75)" id="113" stroke-linecap="round" stroke="#6f56e6" stroke-linejoin="round" d="M-48.3,-42.4C-49.5,-45.4,-52.2,-46.7,-54.5,-45.8C-56.8,-44.9,-58,-42.1,-56.7,-39.1C-55.8,-36.9,-54.8,-34.7,-53.9,-32.5C-52.9,-30.4,-51.9,-28.2,-50.8,-26.1C-49.8,-24,-48.7,-21.8,-47.5,-19.7C-46.4,-17.7,-45.3,-15.6,-44.1,-13.5C-42.9,-11.5,-41.6,-9.4,-40.4,-7.4C-39.1,-5.4,-37.8,-3.4,-36.5,-1.4C-35.1,0.5,-33.8,2.5,-32.4,4.4C-31,6.3,-29.5,8.2,-28,10.1C-26.6,11.9,-25.1,13.8,-23.5,15.6C-22,17.4,-20.4,19.1,-18.8,20.9C-17.1,22.6,-15.5,24.3,-13.8,26C-12.1,27.7,-10.4,29.3,-8.7,30.9C-6.9,32.5,-5.1,34.1,-3.3,35.6C-1.5,37.1,0.4,38.6,2.3,40.1C4.1,41.5,6.1,42.9,8,44.3C10,45.6,11.9,46.9,13.9,48.2C15.9,49.5,18,50.7,20,51.8C22.1,53,24.2,54.1,26.3,55.2C28.4,56.3,30.5,57.3,32.7,58.3C34.8,59.2,37,60.2,39.2,61C41.4,61.9,43.6,62.7,45.8,63.5C48.1,64.2,50.3,65,52.6,65.6C54.8,66.3,57.1,66.9,59.4,67.5C61.7,68,64,68.5,66.3,69C68.6,69.4,70.9,69.9,73.2,70.2C75.6,70.6,77.9,70.9,80.2,71.2C82.6,71.4,84.9,71.6,87.2,71.8C89.5,72,91.8,72.1,94.3,72.2C96.8,72.3,99.5,72.3,101.3,72.3C103,72.3,103.8,72.3,104.5,72.3C104.9,72.2,105.1,72,105.1,71.8C105.1,71.5,104.9,71.3,104.5,71.3C103.8,71.2,103,71.2,101.3,71.2C99.6,71.1,96.8,71,94.3,70.8C91.9,70.6,89.7,70.4,87.4,70.1C85.1,69.9,82.8,69.6,80.5,69.2C78.2,68.9,75.9,68.5,73.6,68C71.4,67.6,69.1,67.1,66.8,66.6C64.6,66,62.3,65.4,60.1,64.8C57.9,64.2,55.7,63.5,53.5,62.7C51.3,62,49.1,61.2,47,60.4C44.8,59.6,42.7,58.7,40.6,57.7C38.5,56.8,36.4,55.8,34.3,54.8C32.3,53.8,30.2,52.7,28.2,51.6C26.2,50.5,24.2,49.3,22.3,48.1C20.3,46.9,18.4,45.6,16.5,44.3C14.6,43,12.7,41.7,10.9,40.3C9.1,38.9,7.3,37.5,5.5,36C3.7,34.5,2,33,0.3,31.5C-1.4,29.9,-3.1,28.4,-4.7,26.8C-6.3,25.2,-7.9,23.5,-9.5,21.8C-11.1,20.2,-12.6,18.4,-14.1,16.7C-15.6,15,-17,13.2,-18.4,11.4C-19.9,9.6,-21.3,7.8,-22.6,5.9C-24,4.1,-25.3,2.2,-26.6,0.3C-27.8,-1.6,-29.1,-3.5,-30.3,-5.5C-31.5,-7.4,-32.7,-9.4,-33.8,-11.3C-35,-13.3,-36.1,-15.3,-37.1,-17.4C-38.2,-19.4,-39.3,-21.4,-40.3,-23.5C-41.3,-25.5,-42.2,-27.6,-43.2,-29.7C-44.1,-31.8,-45,-33.9,-45.9,-36C-46.7,-38.1,-47.5,-40.3,-48.3,-42.4z" ed:tosuperid="154"/><path ed:parentid="148" fill="#e61496" transform="matrix(1,0,0,1,272.5,381.63)" id="114" stroke-linecap="round" stroke="#e61496" stroke-linejoin="round" d="M-65.6,-77.7C-66.3,-80.8,-68.8,-82.5,-71.2,-81.9C-73.6,-81.3,-75.2,-78.7,-74.3,-75.6C-73.8,-73.3,-73.2,-71,-72.5,-68.7C-71.9,-66.5,-71.3,-64.2,-70.6,-61.9C-69.9,-59.7,-69.2,-57.4,-68.5,-55.2C-67.8,-52.9,-67.1,-50.7,-66.4,-48.4C-65.6,-46.2,-64.9,-44,-64.1,-41.7C-63.3,-39.5,-62.5,-37.3,-61.7,-35.1C-60.8,-32.9,-60,-30.7,-59.1,-28.5C-58.2,-26.3,-57.4,-24.1,-56.4,-21.9C-55.5,-19.8,-54.6,-17.6,-53.7,-15.4C-52.7,-13.3,-51.7,-11.1,-50.7,-9C-49.7,-6.9,-48.7,-4.7,-47.7,-2.6C-46.6,-0.5,-45.6,1.6,-44.5,3.7C-43.4,5.8,-42.3,7.9,-41.1,9.9C-40,12,-38.8,14,-37.6,16.1C-36.4,18.1,-35.2,20.1,-34,22.2C-32.7,24.2,-31.5,26.1,-30.2,28.1C-28.9,30.1,-27.6,32,-26.2,34C-24.9,35.9,-23.5,37.8,-22.1,39.7C-20.7,41.6,-19.2,43.5,-17.8,45.4C-16.3,47.2,-14.8,49,-13.3,50.8C-11.8,52.6,-10.2,54.4,-8.6,56.2C-7,57.9,-5.4,59.6,-3.8,61.3C-2.1,63,-0.5,64.7,1.2,66.3C3,68,4.7,69.6,6.5,71.1C8.2,72.7,10,74.2,11.9,75.7C13.7,77.2,15.6,78.6,17.5,80C19.4,81.4,21.3,82.8,23.3,84.1C25.2,85.4,27.2,86.7,29.2,87.9C31.3,89.1,33.3,90.3,35.4,91.4C37.5,92.5,39.6,93.6,41.7,94.6C43.8,95.6,46,96.6,48.1,97.5C50.3,98.4,52.5,99.3,54.7,100.1C57,100.9,59.2,101.6,61.4,102.3C63.7,102.9,66,103.6,68.3,104.1C70.5,104.7,72.8,105.2,75.1,105.6C77.4,106.1,79.7,106.4,82.1,106.8C84.4,107.1,86.8,107.4,89.1,107.6C91.4,107.8,93.5,107.9,96.1,108C98.7,108.1,101.7,108.1,103.1,108.1C104.6,108.1,104.5,108.1,104.5,108.1C104.1,108,105.1,107.9,105.1,107.6C105.1,107.3,104.2,107,104.5,107.1C104.5,107.1,104.6,107.1,103.1,107.1C101.7,107,98.7,106.9,96.2,106.8C93.6,106.6,91.5,106.4,89.2,106.1C87,105.8,84.6,105.5,82.3,105.1C80,104.7,77.8,104.3,75.5,103.8C73.3,103.3,71,102.7,68.8,102.1C66.5,101.5,64.3,100.8,62.1,100.1C59.9,99.4,57.8,98.6,55.6,97.7C53.4,96.9,51.3,96,49.2,95.1C47.1,94.1,45,93.1,43,92C40.9,91,38.9,89.9,36.9,88.7C34.9,87.6,32.9,86.4,31,85.1C29,83.9,27.1,82.6,25.3,81.2C23.4,79.9,21.5,78.5,19.7,77.1C17.9,75.6,16.1,74.2,14.4,72.7C12.6,71.2,10.9,69.6,9.2,68.1C7.5,66.5,5.9,64.9,4.3,63.3C2.6,61.6,1.1,59.9,-0.5,58.2C-2.1,56.5,-3.6,54.8,-5.1,53.1C-6.6,51.3,-8.1,49.5,-9.5,47.7C-10.9,45.9,-12.3,44.1,-13.7,42.2C-15.1,40.4,-16.4,38.5,-17.8,36.6C-19.1,34.7,-20.4,32.8,-21.6,30.9C-22.9,29,-24.1,27,-25.3,25C-26.5,23.1,-27.7,21.1,-28.9,19.1C-30,17.1,-31.2,15.1,-32.3,13.1C-33.4,11,-34.5,9,-35.5,6.9C-36.6,4.9,-37.6,2.8,-38.6,0.7C-39.6,-1.3,-40.6,-3.4,-41.6,-5.5C-42.5,-7.6,-43.5,-9.7,-44.4,-11.8C-45.3,-14,-46.2,-16.1,-47.1,-18.2C-47.9,-20.4,-48.8,-22.5,-49.6,-24.7C-50.4,-26.8,-51.2,-29,-52,-31.2C-52.8,-33.3,-53.6,-35.5,-54.3,-37.7C-55.1,-39.9,-55.8,-42.1,-56.5,-44.3C-57.2,-46.5,-57.9,-48.7,-58.6,-50.9C-59.2,-53.1,-59.9,-55.3,-60.5,-57.5C-61.1,-59.8,-61.7,-62,-62.3,-64.2C-62.9,-66.5,-63.5,-68.7,-64,-70.9C-64.6,-73.2,-65.1,-75.4,-65.6,-77.7z" ed:tosuperid="155"/><path ed:parentid="148" fill="#4444ff" transform="matrix(1,0,0,1,272.5,274)" id="197" stroke-linecap="round" stroke="#4444ff" stroke-linejoin="round" d="M41.5,-4.5C38.3,-4.7,36.1,-2.5,36.1,0C36.1,2.5,38.3,4.7,41.5,4.5L104.5,0.5C104.9,0.5,105.1,0.3,105.1,0C105.1,-0.3,104.9,-0.5,104.5,-0.5L41.5,-4.5z" ed:tosuperid="196"/><path ed:parentid="148" fill="#ec0404" transform="matrix(1,0,0,1,272.5,309.88)" id="199" stroke-linecap="round" stroke="#ec0404" stroke-linejoin="round" d="M2.3,-7.9C0.2,-10.3,-2.8,-10.6,-4.7,-8.9C-6.5,-7.3,-6.7,-4.2,-4.4,-1.9C-2.7,-0.2,-1,1.6,0.8,3.2C2.6,4.9,4.4,6.5,6.3,8C8.2,9.5,10.1,10.9,12.1,12.3C14.1,13.7,16.1,15,18.1,16.3C20.2,17.6,22.3,18.8,24.4,19.9C26.5,21,28.7,22.1,30.8,23.1C33,24.1,35.2,25,37.4,25.9C39.6,26.8,41.9,27.6,44.1,28.4C46.4,29.1,48.6,29.8,50.9,30.5C53.2,31.1,55.5,31.7,57.8,32.3C60.1,32.8,62.4,33.3,64.8,33.7C67.1,34.1,69.4,34.5,71.8,34.8C74.1,35.1,76.4,35.4,78.8,35.6C81.1,35.9,83.5,36,85.8,36.2C88.1,36.3,90.4,36.4,92.8,36.5C95.3,36.5,97.9,36.5,99.9,36.5C101.8,36.5,103.2,36.4,104.5,36.4C104.9,36.4,105.1,36.1,105.1,35.9C105.1,35.6,104.9,35.4,104.5,35.4C103.2,35.3,101.9,35.3,99.9,35.2C97.9,35.1,95.3,34.9,92.9,34.7C90.5,34.4,88.3,34.2,86,33.9C83.7,33.6,81.4,33.3,79.1,32.9C76.8,32.5,74.6,32.1,72.3,31.6C70,31.1,67.8,30.6,65.6,30.1C63.3,29.5,61.1,28.9,58.9,28.2C56.7,27.5,54.5,26.8,52.3,26C50.2,25.3,48,24.4,45.9,23.6C43.8,22.7,41.7,21.7,39.7,20.8C37.6,19.8,35.6,18.7,33.6,17.6C31.6,16.5,29.6,15.4,27.7,14.2C25.8,13,23.9,11.7,22,10.4C20.2,9.1,18.4,7.7,16.7,6.3C14.9,4.9,13.2,3.4,11.5,1.9C9.9,0.3,8.3,-1.2,6.8,-2.9C5.2,-4.5,3.8,-6.2,2.3,-7.9z" ed:tosuperid="198"/><g ed:layout="map" transform="matrix(1,0,0,1,22,243)" id="148" ed:height="62" ed:topictype="mainidea" ed:width="292"><path fill="#fa493a" stroke="#fa493a" stroke-linejoin="round" d="M4,0L288,0C290.7,0,292,1.3,292,4L292,58C292,60.7,290.7,62,288,62L4,62C1.3,62,0,60.7,0,58L0,4C0,1.3,1.3,0,4,0z" stroke-width="2"/><text class="st12"><tspan x="20" y="38.95" style="white-space:pre" textLength="249"> contrastive learning</tspan></text></g><g ed:parentid="148" ed:layout="rightmap" transform="matrix(1,0,0,1,377,20)" id="149" ed:height="38.75" ed:width="133"><path fill="none" stroke="#4087f3" stroke-linejoin="round" stroke-width="2" d="M0,38.8L133,38.8"/><text class="st13"><tspan x="37" y="24.6" style="white-space:pre" textLength="57">MoCo</tspan></text></g><g ed:parentid="148" ed:layout="rightmap" transform="matrix(1,0,0,1,377,91.75)" id="152" ed:height="38.75" ed:width="132"><path fill="none" stroke="#fbbf04" stroke-linejoin="round" stroke-width="2" d="M0,38.8L132,38.8"/><text class="st13"><tspan x="29" y="24.6" style="white-space:pre" textLength="72">SimCLR</tspan></text></g><g ed:parentid="148" ed:layout="rightmap" transform="matrix(1,0,0,1,377,163.5)" id="153" ed:height="38.75" ed:width="122"><path fill="none" stroke="#34ab52" stroke-linejoin="round" stroke-width="2" d="M0,38.8L122,38.8"/><text class="st13"><tspan x="17" y="24.6" style="white-space:pre" textLength="86">MoCo v2</tspan></text></g><g ed:parentid="148" ed:layout="rightmap" transform="matrix(1,0,0,1,377,378.75)" id="154" ed:height="38.75" ed:width="137"><path fill="none" stroke="#6f56e6" stroke-linejoin="round" stroke-width="2" d="M0,38.8L137,38.8"/><text class="st13"><tspan x="26" y="24.6" style="white-space:pre" textLength="83">SimSiam</tspan></text></g><g ed:parentid="148" ed:layout="rightmap" transform="matrix(1,0,0,1,377,450.5)" id="155" ed:height="38.75" ed:width="131"><path fill="none" stroke="#e61496" stroke-linejoin="round" stroke-width="2" d="M0,38.8L131,38.8"/><text class="st13"><tspan x="21" y="24.6" style="white-space:pre" textLength="86">MoCo v3</tspan></text></g><g ed:parentid="148" ed:layout="rightmap" transform="matrix(1,0,0,1,377,235.25)" id="196" ed:height="38.75" ed:width="126"><path fill="none" stroke="#4444ff" stroke-linejoin="round" stroke-width="2" d="M0,38.8L126,38.8"/><text class="st13"><tspan x="36" y="24.6" style="white-space:pre" textLength="51">BYOL</tspan></text></g><g ed:parentid="148" ed:layout="rightmap" transform="matrix(1,0,0,1,377,307)" id="198" ed:height="38.75" ed:width="127"><path fill="none" stroke="#ec0404" stroke-linejoin="round" stroke-width="2" d="M0,38.8L127,38.8"/><text class="st13"><tspan x="35" y="24.6" style="white-space:pre" textLength="55">SwAV</tspan></text></g></svg>